<svg xmlns="http://www.w3.org/2000/svg" viewBox="0 0 800 560">
  <defs>
    <linearGradient id="bgGrad" x1="0%" y1="0%" x2="100%" y2="100%">
      <stop offset="0%" stop-color="#0F172A" />
      <stop offset="100%" stop-color="#152238" />
    </linearGradient>
    <linearGradient id="barGrad" x1="0%" y1="0%" x2="0%" y2="100%">
      <stop offset="0%" stop-color="#2563EB" />
      <stop offset="100%" stop-color="#7C3AED" />
    </linearGradient>
    
  </defs><rect width="100%" height="100%" fill="url(#bgGrad)" />
  <g opacity="0.06" stroke="#2563EB">
    <line x1="0" y1="0" x2="800" y2="0" /><line x1="0" y1="60" x2="800" y2="60" /><line x1="0" y1="120" x2="800" y2="120" /><line x1="0" y1="180" x2="800" y2="180" /><line x1="0" y1="240" x2="800" y2="240" /><line x1="0" y1="300" x2="800" y2="300" /><line x1="0" y1="360" x2="800" y2="360" /><line x1="0" y1="420" x2="800" y2="420" /><line x1="0" y1="480" x2="800" y2="480" /><line x1="0" y1="540" x2="800" y2="540" />
    <line x1="0" y1="0" x2="0" y2="600" /><line x1="60" y1="0" x2="60" y2="600" /><line x1="120" y1="0" x2="120" y2="600" /><line x1="180" y1="0" x2="180" y2="600" /><line x1="240" y1="0" x2="240" y2="600" /><line x1="300" y1="0" x2="300" y2="600" /><line x1="360" y1="0" x2="360" y2="600" /><line x1="420" y1="0" x2="420" y2="600" /><line x1="480" y1="0" x2="480" y2="600" /><line x1="540" y1="0" x2="540" y2="600" /><line x1="600" y1="0" x2="600" y2="600" /><line x1="660" y1="0" x2="660" y2="600" /><line x1="720" y1="0" x2="720" y2="600" /><line x1="780" y1="0" x2="780" y2="600" />
  </g><text x="30" y="40" font-family="Space Grotesk, sans-serif" font-size="18" font-weight="700" fill="#F8FAFC">Sales Analysis Dashboard</text><text x="30" y="60" font-family="Inter, sans-serif" font-size="11" fill="#64748B">Python · SQL · Power BI · Forecast</text>
  <rect x="30" y="84" width="175" height="90" rx="12" fill="#152238" stroke="#1E293B" />
  <text x="46" y="108" font-family="Inter, sans-serif" font-size="11" fill="#94A3B8">Revenu total</text>
  <text x="46" y="160" font-family="JetBrains Mono, monospace" font-size="22" font-weight="600" fill="#2563EB">1.4M MAD</text>
  <rect x="215" y="84" width="175" height="90" rx="12" fill="#152238" stroke="#1E293B" />
  <text x="231" y="108" font-family="Inter, sans-serif" font-size="11" fill="#94A3B8">Commandes</text>
  <text x="231" y="160" font-family="JetBrains Mono, monospace" font-size="22" font-weight="600" fill="#06B6D4">3 920</text>
  <rect x="400" y="84" width="175" height="90" rx="12" fill="#152238" stroke="#1E293B" />
  <text x="416" y="108" font-family="Inter, sans-serif" font-size="11" fill="#94A3B8">Panier moyen</text>
  <text x="416" y="160" font-family="JetBrains Mono, monospace" font-size="22" font-weight="600" fill="#7C3AED">358 MAD</text>
  <rect x="585" y="84" width="185" height="90" rx="12" fill="#152238" stroke="#1E293B" />
  <text x="601" y="108" font-family="Inter, sans-serif" font-size="11" fill="#94A3B8">Croissance</text>
  <text x="601" y="160" font-family="JetBrains Mono, monospace" font-size="22" font-weight="600" fill="#34D399">+12.6%</text><rect x="30" y="190" width="740" height="200" rx="12" fill="#152238" stroke="#1E293B" /><text x="46" y="216" font-family="Inter, sans-serif" font-size="12" fill="#94A3B8">Ventes réelles vs prévisions</text>
  <path d="M46,366 L109.63636363636363,342.219512195122 L173.27272727272725,353.3170731707317 L236.9090909090909,318.4390243902439 L300.5454545454545,331.1219512195122 L364.1818181818182,294.6585365853658 L427.8181818181818,305.7560975609756 L491.45454545454544,270.8780487804878 L555.090909090909,283.5609756097561 L618.7272727272727,255.02439024390245 L682.3636363636364,262.9512195121951 L746,236 L746,366 L46,366 Z" fill="#2563EB" opacity="0.15" />
  <path d="M46,366 L109.63636363636363,342.219512195122 L173.27272727272725,353.3170731707317 L236.9090909090909,318.4390243902439 L300.5454545454545,331.1219512195122 L364.1818181818182,294.6585365853658 L427.8181818181818,305.7560975609756 L491.45454545454544,270.8780487804878 L555.090909090909,283.5609756097561 L618.7272727272727,255.02439024390245 L682.3636363636364,262.9512195121951 L746,236" fill="none" stroke="#2563EB" stroke-width="2.5" stroke-linecap="round" stroke-linejoin="round" />
  <path d="M46,366 L109.63636363636363,345.7402597402597 L173.27272727272725,342.3636363636364 L236.9090909090909,328.8571428571429 L300.5454545454545,315.35064935064935 L364.1818181818182,303.53246753246754 L427.8181818181818,295.0909090909091 L491.45454545454544,281.5844155844156 L555.090909090909,273.1428571428571 L618.7272727272727,261.32467532467535 L682.3636363636364,247.8181818181818 L746,236 L746,366 L46,366 Z" fill="#06B6D4" opacity="0.15" />
  <path d="M46,366 L109.63636363636363,345.7402597402597 L173.27272727272725,342.3636363636364 L236.9090909090909,328.8571428571429 L300.5454545454545,315.35064935064935 L364.1818181818182,303.53246753246754 L427.8181818181818,295.0909090909091 L491.45454545454544,281.5844155844156 L555.090909090909,273.1428571428571 L618.7272727272727,261.32467532467535 L682.3636363636364,247.8181818181818 L746,236" fill="none" stroke="#06B6D4" stroke-width="2.5" stroke-linecap="round" stroke-linejoin="round" /><rect x="30" y="406" width="740" height="130" rx="12" fill="#152238" stroke="#1E293B" /><text x="46" y="432" font-family="Inter, sans-serif" font-size="12" fill="#94A3B8">Ventes par région</text><rect x="46" y="482.50704225352115" width="61" height="35.49295774647888" rx="4" fill="#7C3AED" /><rect x="117" y="469.09859154929575" width="61" height="48.901408450704224" rx="4" fill="#7C3AED" /><rect x="188" y="488.0281690140845" width="61" height="29.97183098591549" rx="4" fill="#7C3AED" /><rect x="259" y="462" width="61" height="56" rx="4" fill="#7C3AED" /><rect x="330" y="474.61971830985914" width="61" height="43.38028169014084" rx="4" fill="#7C3AED" /><rect x="401" y="480.14084507042253" width="61" height="37.859154929577464" rx="4" fill="#7C3AED" /><rect x="472" y="465.943661971831" width="61" height="52.056338028169016" rx="4" fill="#7C3AED" /><rect x="543" y="471.46478873239437" width="61" height="46.53521126760563" rx="4" fill="#7C3AED" /><rect x="614" y="486.4507042253521" width="61" height="31.549295774647888" rx="4" fill="#7C3AED" /><rect x="685" y="468.3098591549296" width="61" height="49.690140845070424" rx="4" fill="#7C3AED" /></svg>