<svg xmlns="http://www.w3.org/2000/svg" viewBox="0 0 800 560">
  <defs>
    <linearGradient id="bgGrad" x1="0%" y1="0%" x2="100%" y2="100%">
      <stop offset="0%" stop-color="#0F172A" />
      <stop offset="100%" stop-color="#152238" />
    </linearGradient>
    <linearGradient id="barGrad" x1="0%" y1="0%" x2="0%" y2="100%">
      <stop offset="0%" stop-color="#2563EB" />
      <stop offset="100%" stop-color="#7C3AED" />
    </linearGradient>
    
  </defs><rect width="100%" height="100%" fill="url(#bgGrad)" />
  <g opacity="0.06" stroke="#2563EB">
    <line x1="0" y1="0" x2="800" y2="0" /><line x1="0" y1="60" x2="800" y2="60" /><line x1="0" y1="120" x2="800" y2="120" /><line x1="0" y1="180" x2="800" y2="180" /><line x1="0" y1="240" x2="800" y2="240" /><line x1="0" y1="300" x2="800" y2="300" /><line x1="0" y1="360" x2="800" y2="360" /><line x1="0" y1="420" x2="800" y2="420" /><line x1="0" y1="480" x2="800" y2="480" /><line x1="0" y1="540" x2="800" y2="540" />
    <line x1="0" y1="0" x2="0" y2="600" /><line x1="60" y1="0" x2="60" y2="600" /><line x1="120" y1="0" x2="120" y2="600" /><line x1="180" y1="0" x2="180" y2="600" /><line x1="240" y1="0" x2="240" y2="600" /><line x1="300" y1="0" x2="300" y2="600" /><line x1="360" y1="0" x2="360" y2="600" /><line x1="420" y1="0" x2="420" y2="600" /><line x1="480" y1="0" x2="480" y2="600" /><line x1="540" y1="0" x2="540" y2="600" /><line x1="600" y1="0" x2="600" y2="600" /><line x1="660" y1="0" x2="660" y2="600" /><line x1="720" y1="0" x2="720" y2="600" /><line x1="780" y1="0" x2="780" y2="600" />
  </g><text x="30" y="40" font-family="Space Grotesk, sans-serif" font-size="18" font-weight="700" fill="#F8FAFC">Titanic — Analyse exploratoire</text><text x="30" y="60" font-family="Inter, sans-serif" font-size="11" fill="#64748B">Python · Pandas · Scikit-Learn · Matplotlib</text>
  <rect x="30" y="84" width="235" height="90" rx="12" fill="#152238" stroke="#1E293B" />
  <text x="46" y="108" font-family="Inter, sans-serif" font-size="11" fill="#94A3B8">Taux de survie</text>
  <text x="46" y="160" font-family="JetBrains Mono, monospace" font-size="22" font-weight="600" fill="#06B6D4">38.4%</text>
  <rect x="280" y="84" width="235" height="90" rx="12" fill="#152238" stroke="#1E293B" />
  <text x="296" y="108" font-family="Inter, sans-serif" font-size="11" fill="#94A3B8">Passagers analysés</text>
  <text x="296" y="160" font-family="JetBrains Mono, monospace" font-size="22" font-weight="600" fill="#2563EB">891</text>
  <rect x="530" y="84" width="240" height="90" rx="12" fill="#152238" stroke="#1E293B" />
  <text x="546" y="108" font-family="Inter, sans-serif" font-size="11" fill="#94A3B8">Précision du modèle</text>
  <text x="546" y="160" font-family="JetBrains Mono, monospace" font-size="22" font-weight="600" fill="#34D399">81.2%</text><rect x="30" y="190" width="360" height="246" rx="12" fill="#152238" stroke="#1E293B" /><text x="46" y="216" font-family="Inter, sans-serif" font-size="12" fill="#94A3B8">Survie par classe</text><rect x="46" y="246" width="102.66666666666667" height="166" rx="4" fill="#7C3AED" /><rect x="158.66666666666669" y="288.1587301587301" width="102.66666666666667" height="123.84126984126985" rx="4" fill="#7C3AED" /><rect x="271.33333333333337" y="348.76190476190476" width="102.66666666666667" height="63.238095238095234" rx="4" fill="#7C3AED" /><rect x="410" y="190" width="360" height="246" rx="12" fill="#152238" stroke="#1E293B" /><text x="426" y="216" font-family="Inter, sans-serif" font-size="12" fill="#94A3B8">Répartition par sexe</text><g><path d="M590,320 L590,230 A90,90 0 1 1 517.1884705062547,372.9006727063226 Z" fill="#2563EB" opacity="0.9" /><path d="M590,320 L517.1884705062547,372.9006727063226 A90,90 0 0 1 590,230 Z" fill="#06B6D4" opacity="0.9" /><circle cx="590" cy="320" r="49.50000000000001" fill="#0F172A" /></g></svg>