<svg xmlns="http://www.w3.org/2000/svg" viewBox="0 0 700 500">
  <defs>
    <linearGradient id="bgGrad" x1="0%" y1="0%" x2="100%" y2="100%">
      <stop offset="0%" stop-color="#0F172A" />
      <stop offset="100%" stop-color="#152238" />
    </linearGradient>
    <linearGradient id="barGrad" x1="0%" y1="0%" x2="0%" y2="100%">
      <stop offset="0%" stop-color="#2563EB" />
      <stop offset="100%" stop-color="#7C3AED" />
    </linearGradient>
    
  </defs><rect width="100%" height="100%" fill="url(#bgGrad)" />
  <g opacity="0.06" stroke="#2563EB">
    <line x1="0" y1="0" x2="800" y2="0" /><line x1="0" y1="60" x2="800" y2="60" /><line x1="0" y1="120" x2="800" y2="120" /><line x1="0" y1="180" x2="800" y2="180" /><line x1="0" y1="240" x2="800" y2="240" /><line x1="0" y1="300" x2="800" y2="300" /><line x1="0" y1="360" x2="800" y2="360" /><line x1="0" y1="420" x2="800" y2="420" /><line x1="0" y1="480" x2="800" y2="480" /><line x1="0" y1="540" x2="800" y2="540" />
    <line x1="0" y1="0" x2="0" y2="600" /><line x1="60" y1="0" x2="60" y2="600" /><line x1="120" y1="0" x2="120" y2="600" /><line x1="180" y1="0" x2="180" y2="600" /><line x1="240" y1="0" x2="240" y2="600" /><line x1="300" y1="0" x2="300" y2="600" /><line x1="360" y1="0" x2="360" y2="600" /><line x1="420" y1="0" x2="420" y2="600" /><line x1="480" y1="0" x2="480" y2="600" /><line x1="540" y1="0" x2="540" y2="600" /><line x1="600" y1="0" x2="600" y2="600" /><line x1="660" y1="0" x2="660" y2="600" /><line x1="720" y1="0" x2="720" y2="600" /><line x1="780" y1="0" x2="780" y2="600" />
  </g><text x="26" y="36" font-family="Space Grotesk, sans-serif" font-size="16" font-weight="700" fill="#F8FAFC">Scripts Python</text><rect x="40" y="70" width="620" height="380" rx="10" fill="#152238" stroke="#1E293B" /><circle cx="64" cy="94" r="6" fill="#EF4444" /><circle cx="84" cy="94" r="6" fill="#F59E0B" /><circle cx="104" cy="94" r="6" fill="#22C55E" /><text x="60" y="140" font-family="JetBrains Mono, monospace" font-size="13"><tspan fill="#7C3AED">import</tspan><tspan fill="#CBD5E1"> pandas as pd</tspan></text><text x="60" y="168" font-family="JetBrains Mono, monospace" font-size="13"><tspan fill="#7C3AED">df</tspan><tspan fill="#CBD5E1"> = pd.read_sql(query, conn)</tspan></text><text x="60" y="196" font-family="JetBrains Mono, monospace" font-size="13"><tspan fill="#7C3AED">df</tspan><tspan fill="#CBD5E1">['cout_total'] = df.qty * df.prix</tspan></text><text x="60" y="224" font-family="JetBrains Mono, monospace" font-size="13"><tspan fill="#7C3AED"></tspan><tspan fill="#CBD5E1"></tspan></text><text x="60" y="252" font-family="JetBrains Mono, monospace" font-size="13"><tspan fill="#7C3AED">def</tspan><tspan fill="#CBD5E1"> clean_data(df):</tspan></text><text x="60" y="280" font-family="JetBrains Mono, monospace" font-size="13"><tspan fill="#7C3AED">    return</tspan><tspan fill="#CBD5E1"> df.dropna()</tspan></text></svg>